<svg xmlns="http://www.w3.org/2000/svg" xmlns:xlink="http://www.w3.org/1999/xlink" id="svg" width="400" height="385.61797752808985" viewBox="0, 0, 400,385.61797752808985"><g id="svgg"><path id="path0" d="M179.775 0.575 C 178.539 0.756,174.494 1.338,170.787 1.869 C 96.490 12.494,31.878 65.129,9.775 133.034 C -33.079 264.689,74.420 389.735,172.703 322.556 C 193.209 308.539,212.533 286.368,225.760 261.682 C 228.308 256.925,230.540 252.858,230.719 252.643 C 230.898 252.428,232.554 253.681,234.399 255.429 C 245.821 266.248,268.062 280.457,277.140 282.736 C 280.624 283.610,280.419 283.946,270.872 292.981 C 249.524 313.185,227.796 322.940,200.823 324.430 L 189.062 325.080 183.295 329.888 C 162.968 346.834,135.217 357.753,112.477 357.753 C 105.078 357.753,105.461 358.363,116.085 363.505 C 180.459 394.658,253.713 390.372,311.011 352.101 C 393.724 296.854,423.087 192.808,379.686 108.764 C 332.648 17.678,233.358 16.682,177.203 106.732 C 171.540 115.812,171.406 114.362,178.652 122.398 C 181.989 126.099,187.495 132.250,190.888 136.066 L 197.056 143.006 202.332 134.848 C 231.650 89.512,263.748 72.285,296.176 84.480 L 304.263 87.521 297.974 88.629 C 270.135 93.534,239.661 114.768,217.183 144.923 C 208.554 156.500,208.676 155.761,214.382 161.945 C 216.360 164.089,221.775 169.989,226.417 175.056 C 236.547 186.116,235.118 185.991,241.734 176.404 C 256.917 154.405,277.780 137.122,298.022 129.775 L 303.820 127.670 303.813 175.970 C 303.807 221.977,303.303 234.602,301.156 242.576 L 300.204 246.111 294.147 244.331 C 285.151 241.686,274.421 236.253,266.289 230.223 C 253.648 220.850,252.651 219.826,188.587 150.413 C 161.035 120.560,145.290 107.068,128.315 98.762 C 120.871 95.120,120.740 96.077,129.881 87.301 C 147.978 69.927,172.243 59.098,197.862 56.961 C 205.155 56.353,205.412 56.249,211.189 51.573 C 232.114 34.634,254.048 26.327,279.949 25.533 C 296.107 25.038,295.813 25.231,287.059 20.850 C 255.920 5.263,208.669 -3.667,179.775 0.575 M163.139 40.843 C 113.979 56.552,68.146 107.030,58.042 156.591 C 56.325 165.011,55.969 227.656,57.592 235.686 C 60.826 251.684,67.210 263.459,78.009 273.343 C 102.072 295.366,146.544 276.778,180.363 230.562 C 185.428 223.640,190.098 217.272,190.741 216.411 C 191.799 214.993,192.403 215.439,197.079 221.091 C 203.266 228.569,203.272 226.261,197.034 237.417 C 177.244 272.809,156.337 292.597,131.505 299.441 C 67.737 317.017,18.504 226.324,46.274 142.436 C 62.660 92.940,103.363 56.308,159.101 40.896 C 168.780 38.220,171.457 38.185,163.139 40.843 M354.626 154.295 C 369.445 193.665,358.823 247.511,328.600 286.229 C 321.443 295.398,300.418 315.506,297.988 315.506 C 297.694 315.506,296.587 316.312,295.528 317.299 C 291.532 321.022,272.090 331.537,262.299 335.270 C 256.002 337.672,238.153 342.723,237.671 342.240 C 237.462 342.032,239.013 341.353,241.118 340.733 C 247.920 338.726,267.531 328.777,274.461 323.818 C 309.972 298.402,332.981 266.131,340.312 231.461 C 341.871 224.089,342.022 219.123,342.022 175.521 L 342.022 127.671 347.200 137.996 C 350.048 143.675,353.389 151.010,354.626 154.295 M110.375 135.294 C 126.939 144.103,137.001 152.852,156.512 175.408 L 167.119 187.670 163.483 192.860 C 142.807 222.376,120.999 239.517,99.551 243.112 L 96.180 243.677 96.180 186.096 L 96.180 128.515 99.551 129.923 C 101.404 130.697,106.276 133.114,110.375 135.294 " stroke="none" fill="#f2d544" fill-rule="evenodd"/></g></svg>